<svg width="30" height="30" viewBox="0 0 30 30" fill="none" xmlns="http://www.w3.org/2000/svg">
<rect width="30" height="30" rx="15" fill="#FFD9D1"/>
<path fill-rule="evenodd" clip-rule="evenodd" d="M11.9116 20.4507C12.6201 17.6063 15.415 16.25 18.1251 16.25C20.8296 16.25 23.6309 17.563 24.3394 20.4528C24.4942 21.0824 24.103 21.875 23.2747 21.875H12.9758C12.1498 21.875 11.7537 21.0844 11.9116 20.4509C11.9116 20.4508 11.9116 20.4508 11.9116 20.4507ZM13.1587 20.625H23.0925C22.5233 18.5919 20.4648 17.5 18.1251 17.5C15.793 17.5 13.7297 18.6245 13.1587 20.625Z" fill="#894839"/>
<path fill-rule="evenodd" clip-rule="evenodd" d="M5.65722 19.3313C6.24267 16.9825 8.54667 15.8809 10.7422 15.8809C11.6264 15.8809 12.4978 16.0141 13.3072 16.3849C13.621 16.5287 13.7589 16.8997 13.6151 17.2135C13.4713 17.5273 13.1003 17.6651 12.7865 17.5213C12.1858 17.2461 11.5041 17.1309 10.7422 17.1309C8.97919 17.1309 7.4453 17.9494 6.94727 19.375H11.0156C11.3608 19.375 11.6406 19.6548 11.6406 20C11.6406 20.3452 11.3608 20.625 11.0156 20.625H6.62968C5.87113 20.625 5.51648 19.8993 5.65701 19.3321L5.65711 19.3317L5.65722 19.3313Z" fill="#894839"/>
<path fill-rule="evenodd" clip-rule="evenodd" d="M18.125 13.75C19.122 13.75 20.0781 12.8552 20.0781 11.5625C20.0781 10.2698 19.122 9.375 18.125 9.375C17.128 9.375 16.1719 10.2698 16.1719 11.5625C16.1719 12.8552 17.128 13.75 18.125 13.75ZM18.125 15C19.894 15 21.3281 13.461 21.3281 11.5625C21.3281 9.66402 19.894 8.125 18.125 8.125C16.356 8.125 14.9219 9.66402 14.9219 11.5625C14.9219 13.461 16.356 15 18.125 15Z" fill="#894839"/>
<path fill-rule="evenodd" clip-rule="evenodd" d="M10.7422 13.9062C11.4595 13.9062 12.1875 13.2555 12.1875 12.2656C12.1875 11.2757 11.4595 10.625 10.7422 10.625C10.0249 10.625 9.29688 11.2757 9.29688 12.2656C9.29688 13.2555 10.0249 13.9062 10.7422 13.9062ZM10.7422 15.1562C12.2308 15.1562 13.4375 13.8621 13.4375 12.2656C13.4375 10.6692 12.2308 9.375 10.7422 9.375C9.25361 9.375 8.04688 10.6692 8.04688 12.2656C8.04688 13.8621 9.25361 15.1562 10.7422 15.1562Z" fill="#894839"/>
</svg>
