<svg width="30" height="30" viewBox="0 0 30 30" fill="none" xmlns="http://www.w3.org/2000/svg">
<rect width="30" height="30" rx="15" fill="#FFE6FC"/>
<path fill-rule="evenodd" clip-rule="evenodd" d="M6.87507 11.9002C6.89943 9.52365 8.78745 7.5 11.2141 7.5C12.7036 7.5 13.7992 8.23729 14.4984 8.93148C14.6931 9.12477 14.8601 9.31757 15 9.49534C15.1399 9.31757 15.307 9.12477 15.5017 8.93148C16.2009 8.23729 17.2965 7.5 18.786 7.5C21.2126 7.5 23.1006 9.52365 23.125 11.9002L23.125 11.9004C23.1712 16.5356 19.4468 19.7424 15.7032 22.2835C15.4958 22.4246 15.2508 22.5 15 22.5C14.7492 22.5 14.5043 22.4246 14.2969 22.2835C10.5529 19.7424 6.82843 16.5356 6.87507 11.9004L6.87507 11.9002ZM18.786 8.75C17.7395 8.75 16.9422 9.26271 16.3824 9.81852C16.1038 10.0951 15.894 10.3733 15.7544 10.5819C15.685 10.6857 15.6338 10.7709 15.6011 10.8281C15.5848 10.8566 15.5731 10.8781 15.5661 10.8912C15.5625 10.8978 15.5602 10.9023 15.559 10.9046C15.5587 10.9053 15.5584 10.9058 15.5583 10.906C15.4521 11.1169 15.2362 11.25 15 11.25C14.7639 11.25 14.548 11.1169 14.4418 10.9061C14.4417 10.9058 14.4414 10.9053 14.441 10.9046C14.4403 10.9031 14.439 10.9007 14.4372 10.8973C14.4363 10.8956 14.4352 10.8935 14.434 10.8912C14.427 10.8781 14.4153 10.8566 14.399 10.8281C14.3662 10.7709 14.3151 10.6857 14.2456 10.5819C14.106 10.3733 13.8963 10.0951 13.6177 9.81852C13.0579 9.26271 12.2605 8.75 11.2141 8.75C9.51891 8.75 8.14289 10.1747 8.125 11.9129M18.786 8.75C20.4811 8.75 21.8572 10.1747 21.8751 11.9129C21.914 15.8188 18.7771 18.6862 15.0006 21.2497L15 21.25L14.9995 21.2497C11.2226 18.6863 8.08577 15.8189 8.125 11.913" fill="#8E0981"/>
</svg>
