<svg width="30" height="30" viewBox="0 0 30 30" fill="none" xmlns="http://www.w3.org/2000/svg">
<rect width="30" height="30" rx="15" fill="#EBE6FF"/>
<path fill-rule="evenodd" clip-rule="evenodd" d="M6.8907 8.7657C7.30094 8.35547 7.85734 8.125 8.4375 8.125H17.5C17.8452 8.125 18.125 8.40482 18.125 8.75C18.125 9.09518 17.8452 9.375 17.5 9.375H8.4375C8.18886 9.375 7.9504 9.47377 7.77459 9.64959C7.59877 9.8254 7.5 10.0639 7.5 10.3125V19.6875C7.5 19.9361 7.59877 20.1746 7.77459 20.3504C7.9504 20.5262 8.18886 20.625 8.4375 20.625H21.5129C21.7615 20.625 22 20.5262 22.1758 20.3504C22.3516 20.1746 22.4504 19.9361 22.4504 19.6875V14.3359C22.4504 13.9908 22.7302 13.7109 23.0754 13.7109C23.4206 13.7109 23.7004 13.9908 23.7004 14.3359V19.6875C23.7004 20.2677 23.4699 20.8241 23.0597 21.2343C22.6495 21.6445 22.0931 21.875 21.5129 21.875H8.4375C7.85734 21.875 7.30094 21.6445 6.8907 21.2343C6.48047 20.8241 6.25 20.2677 6.25 19.6875V10.3125C6.25 9.73234 6.48047 9.17594 6.8907 8.7657Z" fill="#4E29E0"/>
<path fill-rule="evenodd" clip-rule="evenodd" d="M8.88168 10.8663C9.0936 10.5938 9.48627 10.5448 9.75874 10.7567L15.0057 14.8377L18.0219 12.561C18.2974 12.353 18.6894 12.4078 18.8973 12.6833C19.1053 12.9588 19.0505 13.3507 18.775 13.5586L15.3766 16.1239C15.151 16.2941 14.8394 16.2918 14.6163 16.1184L8.99132 11.7434C8.71885 11.5315 8.66976 11.1388 8.88168 10.8663Z" fill="#4E29E0"/>
<path d="M21.873 11.875C22.9075 11.875 23.7461 11.0364 23.7461 10.002C23.7461 8.9675 22.9075 8.12891 21.873 8.12891C20.8386 8.12891 20 8.9675 20 10.002C20 11.0364 20.8386 11.875 21.873 11.875Z" fill="#4E29E0"/>
<path d="M21.875 12.5C21.3809 12.5 20.898 12.3535 20.4872 12.079C20.0764 11.8045 19.7562 11.4144 19.5671 10.9579C19.378 10.5015 19.3286 9.99918 19.425 9.51461C19.5213 9.03004 19.7593 8.58493 20.1086 8.23557C20.458 7.88621 20.9031 7.64829 21.3877 7.55191C21.8722 7.45552 22.3745 7.50499 22.831 7.69406C23.2874 7.88313 23.6775 8.20331 23.952 8.61411C24.2265 9.02492 24.373 9.50789 24.373 10.002C24.3725 10.6643 24.1092 11.2994 23.6408 11.7678C23.1724 12.2361 22.5374 12.4995 21.875 12.5ZM21.875 8.75391C21.6277 8.75352 21.3858 8.8265 21.18 8.96362C20.9742 9.10074 20.8137 9.29582 20.7188 9.5242C20.6238 9.75257 20.5988 10.004 20.6468 10.2466C20.6948 10.4892 20.8137 10.7121 20.9885 10.8871C21.1632 11.0621 21.3859 11.1814 21.6285 11.2297C21.871 11.2781 22.1224 11.2535 22.3509 11.1589C22.5795 11.0644 22.7748 10.9042 22.9122 10.6986C23.0497 10.493 23.123 10.2512 23.123 10.0039C23.123 9.67272 22.9916 9.35508 22.7576 9.12071C22.5236 8.88635 22.2062 8.75442 21.875 8.75391Z" fill="#4E29E0"/>
</svg>
