<svg width="30" height="30" viewBox="0 0 30 30" fill="none" xmlns="http://www.w3.org/2000/svg">
<rect width="30" height="30" rx="15" fill="#FDFFED"/>
<path fill-rule="evenodd" clip-rule="evenodd" d="M19.3703 6.25C19.7018 6.25 20.0198 6.3817 20.2542 6.61612C20.4885 6.85048 20.6202 7.16832 20.6203 7.49976C20.6203 7.49984 20.6203 7.49992 20.6203 7.5H19.9953L20.6203 7.49901C20.6203 7.49926 20.6203 7.49951 20.6203 7.49976C20.6219 8.49197 20.625 11.772 20.625 13.75C20.625 15.2843 19.6413 16.5407 18.5355 17.3775C17.6393 18.0556 16.562 18.5369 15.625 18.6943V18.125C15.625 17.7798 15.3452 17.5 15 17.5C14.9995 17.5 14.9989 17.5 14.9984 17.5C15.7032 17.5 16.8244 17.1047 17.7813 16.3807C18.7368 15.6577 19.375 14.7266 19.375 13.75C19.375 11.7722 19.3719 8.4917 19.3703 7.50099V7.5H19.3707L19.371 7.5L19.3703 6.875V7.5L10.6285 7.51016C10.6285 7.5095 10.6285 7.50885 10.6285 7.5082H10.0035L10.6285 7.51016C10.6285 8.10832 10.6272 9.36785 10.626 10.6273L10.626 10.6291C10.6247 11.891 10.6234 13.1524 10.6234 13.75C10.6234 14.7267 11.2614 15.6578 12.2165 16.3808C13.1729 17.1048 14.2936 17.5 14.9984 17.5C14.654 17.5008 14.375 17.7803 14.375 18.125V18.6948C13.4373 18.538 12.3589 18.0563 11.462 17.3774C10.3565 16.5406 9.37341 15.2842 9.37341 13.75C9.37341 13.1515 9.37468 11.8893 9.37595 10.6279L9.37595 10.6273C9.37722 9.36567 9.37849 8.10497 9.37849 7.5082L9.37849 7.50625C9.37953 7.17541 9.51168 6.85847 9.74599 6.62489C9.98019 6.39142 10.2974 6.26027 10.6281 6.26016L10.6278 6.26016L10.6285 6.88516L10.6285 6.26016L19.3703 6.25ZM14.375 22.5V18.6948C14.5916 18.7311 14.8008 18.75 14.9984 18.75C15.197 18.75 15.4072 18.7309 15.625 18.6943V22.5H14.375ZM15 23.75H18.125C18.4702 23.75 18.75 23.4702 18.75 23.125C18.75 22.7798 18.4702 22.5 18.125 22.5H15.625V23.125C15.625 23.4702 15.3452 23.75 15 23.75ZM15 23.75H11.875C11.5298 23.75 11.25 23.4702 11.25 23.125C11.25 22.7798 11.5298 22.5 11.875 22.5H14.375V23.125C14.375 23.4702 14.6548 23.75 15 23.75Z" fill="#BAD900"/>
<path fill-rule="evenodd" clip-rule="evenodd" d="M6.25 8.75C6.25 8.40482 6.52982 8.125 6.875 8.125H10C10.3452 8.125 10.625 8.40482 10.625 8.75V13.75C10.625 14.0952 10.3452 14.375 10 14.375C8.81538 14.375 7.86412 13.6502 7.23851 12.7203C6.6106 11.7869 6.25 10.5703 6.25 9.375V8.75ZM7.5 9.375C7.5 10.3368 7.79468 11.3076 8.27565 12.0225C8.59639 12.4993 8.9735 12.8288 9.375 12.9965V9.375H7.5ZM19.375 8.75C19.375 8.40482 19.6548 8.125 20 8.125H23.125C23.4702 8.125 23.75 8.40482 23.75 8.75V9.375C23.75 10.5703 23.3894 11.7869 22.7615 12.7203C22.1359 13.6502 21.1846 14.375 20 14.375C19.6548 14.375 19.375 14.0952 19.375 13.75C19.375 13.4048 19.6548 13.125 20 13.125C20.6298 13.125 21.2411 12.7408 21.7244 12.0225C22.2053 11.3076 22.5 10.3368 22.5 9.375H20C19.6548 9.375 19.375 9.09518 19.375 8.75Z" fill="#BAD900"/>
</svg>
