<svg width="30" height="30" viewBox="0 0 30 30" fill="none" xmlns="http://www.w3.org/2000/svg">
<rect width="30" height="30" rx="15" fill="#F3FFED"/>
<path d="M20.8333 15.8334H9.16667V21.6667H20.8333V15.8334ZM20.8333 14.1667C20.8333 12.6196 20.2188 11.1359 19.1248 10.0419C18.0308 8.94795 16.5471 8.33336 15 8.33336C13.4529 8.33336 11.9692 8.94795 10.8752 10.0419C9.78125 11.1359 9.16667 12.6196 9.16667 14.1667H20.8333ZM10.3183 8.3067C11.6465 7.24258 13.2982 6.66398 15 6.6667C16.7708 6.6667 18.3983 7.28003 19.6817 8.3067L20.8925 7.09586L22.0708 8.2742L20.86 9.48503C21.9241 10.8131 22.5027 12.4649 22.5 14.1667V22.5C22.5 22.721 22.4122 22.933 22.2559 23.0893C22.0996 23.2456 21.8877 23.3334 21.6667 23.3334H8.33333C8.11232 23.3334 7.90036 23.2456 7.74408 23.0893C7.5878 22.933 7.5 22.721 7.5 22.5V14.1667C7.5 12.3959 8.11333 10.7684 9.14 9.48503L7.92917 8.27503L9.1075 7.0967L10.3183 8.30753V8.3067ZM12.5 12.5C12.279 12.5 12.067 12.4122 11.9107 12.256C11.7545 12.0997 11.6667 11.8877 11.6667 11.6667C11.6667 11.4457 11.7545 11.2337 11.9107 11.0774C12.067 10.9212 12.279 10.8334 12.5 10.8334C12.721 10.8334 12.933 10.9212 13.0893 11.0774C13.2455 11.2337 13.3333 11.4457 13.3333 11.6667C13.3333 11.8877 13.2455 12.0997 13.0893 12.256C12.933 12.4122 12.721 12.5 12.5 12.5ZM17.5 12.5C17.279 12.5 17.067 12.4122 16.9107 12.256C16.7545 12.0997 16.6667 11.8877 16.6667 11.6667C16.6667 11.4457 16.7545 11.2337 16.9107 11.0774C17.067 10.9212 17.279 10.8334 17.5 10.8334C17.721 10.8334 17.933 10.9212 18.0893 11.0774C18.2455 11.2337 18.3333 11.4457 18.3333 11.6667C18.3333 11.8877 18.2455 12.0997 18.0893 12.256C17.933 12.4122 17.721 12.5 17.5 12.5Z" fill="#48A91A"/>
</svg>
