<svg width="30" height="30" viewBox="0 0 30 30" fill="none" xmlns="http://www.w3.org/2000/svg">
<rect width="30" height="30" rx="15" fill="#F7F7F7"/>
<path d="M18.1076 11.84C17.7134 11.8092 17.2901 11.9033 16.6417 12.1508C16.6967 12.13 16.0234 12.3925 15.8351 12.4592C15.4167 12.605 15.0726 12.685 14.6867 12.685C14.3051 12.685 13.9534 12.6083 13.5484 12.4725C13.4192 12.4283 13.2892 12.3808 13.1276 12.3175C13.0592 12.2908 12.8092 12.1908 12.7542 12.17C12.2142 11.9583 11.9101 11.8783 11.6576 11.885C10.6976 11.8975 9.78838 12.4517 9.26088 13.37C8.18422 15.24 8.78005 18.6192 10.3542 20.8958C11.1926 22.0992 11.6509 22.5292 11.8359 22.5233C12.0209 22.515 12.1567 22.4758 12.4884 22.3358L12.6276 22.2767C13.4651 21.9192 14.0526 21.7617 14.9367 21.7617C15.7876 21.7617 16.3559 21.9167 17.1601 22.2633L17.3001 22.3233C17.6317 22.465 17.7517 22.4967 17.9601 22.4917C18.2584 22.4875 18.6259 22.1442 19.4417 20.9467C19.6651 20.6208 19.8626 20.2775 20.0334 19.93C19.9211 19.8375 19.8121 19.7411 19.7067 19.6408C18.6326 18.6175 17.9684 17.2375 17.9501 15.5325C17.9321 14.271 18.3468 13.0414 19.1251 12.0483C18.7984 11.9278 18.4553 11.8575 18.1076 11.84ZM18.2367 10.1783C18.8267 10.2183 20.5167 10.3983 21.6167 12.0083C21.5267 12.0583 19.5967 13.1783 19.6167 15.5183C19.6467 18.3183 22.0667 19.2483 22.0967 19.2583C22.0767 19.3283 21.7067 20.5883 20.8167 21.8883C20.0467 23.0183 19.2467 24.1383 17.9867 24.1583C16.7467 24.1883 16.3467 23.4283 14.9367 23.4283C13.5167 23.4283 13.0767 24.1383 11.9067 24.1883C10.6867 24.2283 9.76672 22.9683 8.98672 21.8483C7.39672 19.5483 6.18672 15.3683 7.81672 12.5383C8.62672 11.1283 10.0667 10.2383 11.6367 10.2183C12.8267 10.1883 13.9567 11.0183 14.6867 11.0183C15.4067 11.0183 16.6967 10.0583 18.2367 10.1783ZM17.2867 8.65834C16.6367 9.43834 15.5767 10.0483 14.5467 9.96834C14.4067 8.90834 14.9267 7.79834 15.5267 7.10834C16.1967 6.32834 17.3167 5.74834 18.2467 5.70834C18.3667 6.78834 17.9367 7.87834 17.2867 8.65834Z" fill="#2F2F2F"/>
</svg>
