<svg width="30" height="30" viewBox="0 0 30 30" fill="none" xmlns="http://www.w3.org/2000/svg">
<rect width="30" height="30" rx="15" fill="#EEEDFF"/>
<path fill-rule="evenodd" clip-rule="evenodd" d="M6.25 15C6.25 10.1677 10.1677 6.25 15 6.25C19.8323 6.25 23.75 10.1677 23.75 15C23.75 19.8323 19.8323 23.75 15 23.75C10.1677 23.75 6.25 19.8323 6.25 15ZM15 7.5C10.8581 7.5 7.5 10.8581 7.5 15C7.5 19.1419 10.8581 22.5 15 22.5C19.1419 22.5 22.5 19.1419 22.5 15C22.5 10.8581 19.1419 7.5 15 7.5Z" fill="#817EF6"/>
<path fill-rule="evenodd" clip-rule="evenodd" d="M11.4025 8.95134C12.2572 7.41264 13.5214 6.25 15 6.25C16.4787 6.25 17.7429 7.41264 18.5976 8.95134C19.4724 10.5262 20.0262 12.6644 20.0262 15C20.0262 17.3356 19.4724 19.4738 18.5976 21.0487C17.7429 22.5874 16.4787 23.75 15 23.75C13.5214 23.75 12.2572 22.5874 11.4025 21.0487C10.5277 19.4738 9.97388 17.3356 9.97388 15C9.97388 12.6644 10.5277 10.5262 11.4025 8.95134ZM12.4952 9.55833C11.7365 10.9242 11.2239 12.8485 11.2239 15C11.2239 17.1515 11.7365 19.0758 12.4952 20.4417C13.274 21.8437 14.2104 22.5 15 22.5C15.7897 22.5 16.7261 21.8437 17.5049 20.4417C18.2636 19.0758 18.7762 17.1515 18.7762 15C18.7762 12.8485 18.2636 10.9242 17.5049 9.55833C16.7261 8.15631 15.7897 7.5 15 7.5C14.2104 7.5 13.274 8.15631 12.4952 9.55833Z" fill="#817EF6"/>
<path fill-rule="evenodd" clip-rule="evenodd" d="M8.98772 9.3933C9.07037 9.13414 9.31116 8.95819 9.58318 8.95819H20.4168C20.6888 8.95819 20.9296 9.13414 21.0122 9.3933C21.0949 9.65247 21.0004 9.93533 20.7786 10.0928C19.179 11.2285 17.172 11.9012 15 11.9012C12.8279 11.9012 10.821 11.2285 9.22136 10.0928C8.99955 9.93533 8.90508 9.65247 8.98772 9.3933ZM12.2023 10.2082C13.074 10.4945 14.0159 10.6512 15 10.6512C15.984 10.6512 16.926 10.4945 17.7976 10.2082H12.2023ZM9.22136 19.9072C10.821 18.7714 12.8279 18.0988 15 18.0988C17.172 18.0988 19.179 18.7714 20.7786 19.9072C21.06 20.107 21.1262 20.4971 20.9264 20.7786C20.7265 21.06 20.3364 21.1262 20.0549 20.9264C18.6671 19.941 16.9131 19.3488 15 19.3488C13.0869 19.3488 11.3329 19.941 9.945 20.9264C9.66355 21.1262 9.27339 21.06 9.07356 20.7786C8.87373 20.4971 8.9399 20.107 9.22136 19.9072Z" fill="#817EF6"/>
<path fill-rule="evenodd" clip-rule="evenodd" d="M15.625 15.625V23.125H14.375V15.625H6.875V14.375H14.375V6.875H15.625V14.375H23.125V15.625H15.625Z" fill="#817EF6"/>
</svg>
