<svg width="30" height="30" viewBox="0 0 30 30" fill="none" xmlns="http://www.w3.org/2000/svg">
<rect width="30" height="30" rx="15" fill="#F2FFED"/>
<path fill-rule="evenodd" clip-rule="evenodd" d="M13.4104 7.61894C13.1249 7.50068 12.8108 7.46973 12.5077 7.53002C12.2046 7.59031 11.9262 7.73913 11.7076 7.95765C11.4891 8.17617 11.3403 8.45458 11.28 8.75767C11.2197 9.06077 11.2507 9.37493 11.3689 9.66044C11.4872 9.94595 11.6875 10.19 11.9444 10.3617C12.2014 10.5334 12.5035 10.625 12.8125 10.625H14.375V9.0625C14.375 8.75347 14.2834 8.45137 14.1117 8.19442C13.94 7.93747 13.696 7.7372 13.4104 7.61894ZM15 7.29473C14.7056 6.93046 14.324 6.64435 13.8888 6.46409C13.3749 6.25122 12.8094 6.19552 12.2638 6.30404C11.7182 6.41256 11.2171 6.68043 10.8238 7.07376C10.4304 7.4671 10.1626 7.96824 10.054 8.51381C9.94552 9.05938 10.0012 9.62488 10.2141 10.1388C10.427 10.6527 10.7874 11.092 11.25 11.401C11.7125 11.71 12.2562 11.875 12.8125 11.875H17.1875C17.7438 11.875 18.2875 11.71 18.75 11.401C19.2125 11.092 19.573 10.6527 19.7859 10.1388C19.9988 9.62488 20.0545 9.05938 19.946 8.51381C19.8374 7.96824 19.5696 7.4671 19.1762 7.07376C18.7829 6.68043 18.2818 6.41256 17.7362 6.30404C17.1906 6.19552 16.6251 6.25122 16.1112 6.46409C15.676 6.64435 15.2944 6.93046 15 7.29473ZM15.625 10.625H17.1875C17.4965 10.625 17.7986 10.5334 18.0556 10.3617C18.3125 10.19 18.5128 9.94595 18.6311 9.66044C18.7493 9.37493 18.7803 9.06077 18.72 8.75767C18.6597 8.45458 18.5109 8.17617 18.2923 7.95765C18.0738 7.73913 17.7954 7.59031 17.4923 7.53002C17.1892 7.46973 16.8751 7.50068 16.5896 7.61894C16.304 7.7372 16.06 7.93747 15.8883 8.19442C15.7166 8.45137 15.625 8.75347 15.625 9.0625V10.625Z" fill="#4DB529"/>
<path fill-rule="evenodd" clip-rule="evenodd" d="M8.75 11.875C8.40482 11.875 8.125 12.1548 8.125 12.5V14.375C8.125 14.7202 8.40482 15 8.75 15H21.25C21.5952 15 21.875 14.7202 21.875 14.375V12.5C21.875 12.1548 21.5952 11.875 21.25 11.875H8.75ZM6.875 12.5C6.875 11.4645 7.71447 10.625 8.75 10.625H21.25C22.2855 10.625 23.125 11.4645 23.125 12.5V14.375C23.125 15.4105 22.2855 16.25 21.25 16.25H8.75C7.71447 16.25 6.875 15.4105 6.875 14.375V12.5Z" fill="#4DB529"/>
<path fill-rule="evenodd" clip-rule="evenodd" d="M15 10.625C15.3452 10.625 15.625 10.9048 15.625 11.25V15H21.25C21.5952 15 21.875 15.2798 21.875 15.625V21.25C21.875 21.913 21.6116 22.5489 21.1428 23.0178C20.6739 23.4866 20.038 23.75 19.375 23.75H10.625C9.96196 23.75 9.32607 23.4866 8.85723 23.0178C8.38839 22.5489 8.125 21.913 8.125 21.25V15.625C8.125 15.2798 8.40482 15 8.75 15H14.375V11.25C14.375 10.9048 14.6548 10.625 15 10.625ZM14.375 16.25H9.375V21.25C9.375 21.5815 9.5067 21.8995 9.74112 22.1339C9.97554 22.3683 10.2935 22.5 10.625 22.5H14.375V16.25ZM15.625 22.5H19.375C19.7065 22.5 20.0245 22.3683 20.2589 22.1339C20.4933 21.8995 20.625 21.5815 20.625 21.25V16.25H15.625V22.5Z" fill="#4DB529"/>
</svg>
