<svg width="30" height="30" viewBox="0 0 30 30" fill="none" xmlns="http://www.w3.org/2000/svg">
<rect width="30" height="30" rx="15" fill="#E3FFDE"/>
<path fill-rule="evenodd" clip-rule="evenodd" d="M12.1875 6.25C12.4139 6.25 12.6226 6.37246 12.7331 6.57011L15.6365 11.7656C16.6896 11.3085 17.8527 11.1486 18.9978 11.3101C20.3573 11.5018 21.6159 12.1359 22.579 13.1143C23.5422 14.0928 24.1564 15.3611 24.3267 16.7235C24.497 18.0858 24.214 19.4664 23.5214 20.6518C22.8288 21.8373 21.7651 22.7617 20.4946 23.2822C19.2242 23.8028 17.8177 23.8905 16.4924 23.5318C15.1671 23.1732 13.9968 22.3881 13.1622 21.298C12.4549 20.3741 12.0222 19.2746 11.9064 18.125H6.25C6.02827 18.125 5.82314 18.0075 5.71094 17.8163C5.59873 17.625 5.59625 17.3887 5.70441 17.1951L11.6419 6.57011C11.7524 6.37246 11.9611 6.25 12.1875 6.25ZM13.1644 18.125C13.2747 18.9991 13.6147 19.8326 14.1548 20.5381C14.8224 21.4103 15.7587 22.0383 16.8189 22.3252C17.8791 22.6122 19.0044 22.542 20.0207 22.1255C21.0371 21.7091 21.888 20.9696 22.4421 20.0212C22.9962 19.0729 23.2226 17.9684 23.0864 16.8785C22.9501 15.7887 22.4588 14.774 21.6882 13.9912C20.9177 13.2085 19.9109 12.7012 18.8232 12.5478C17.949 12.4245 17.0616 12.5354 16.2501 12.8637L18.6706 17.1951C18.7788 17.3887 18.7763 17.625 18.6641 17.8163C18.5519 18.0075 18.3467 18.125 18.125 18.125H13.1644ZM7.31523 16.875H17.0598L12.1875 8.15621L7.31523 16.875Z" fill="#47D130"/>
</svg>
